<svg xmlns="http://www.w3.org/2000/svg" xmlns:xlink="http://www.w3.org/1999/xlink" width="2560" height="100" viewBox="0 0 2560 100">
  <defs>
    <clipPath id="clip-wave">
      <rect width="2560" height="100"/>
    </clipPath>
  </defs>
  <g id="wave" clip-path="url(#clip-wave)">
    <rect width="2560" height="100" fill="#fff"/>
    <line id="Linha_1" data-name="Linha 1" x2="160" transform="translate(0 50.5)" fill="none" stroke="#707070" stroke-width="1"/>
    <path id="Caminho_1" data-name="Caminho 1" d="M-288.5,600.445s88.764-23.162,160,0" transform="translate(448.5 -550)" fill="none" stroke="#707070" stroke-width="1"/>
    <path id="Caminho_2" data-name="Caminho 2" d="M-128.5,600.445c-67.305-46.621-160,0-160,0" transform="translate(608.5 -550)" fill="none" stroke="#707070" stroke-width="1"/>
    <path id="Caminho_3" data-name="Caminho 3" d="M-288.5,600.445s133.164-72.873,160,0" transform="translate(768.5 -550)" fill="none" stroke="#707070" stroke-width="1"/>
    <path id="Caminho_4" data-name="Caminho 4" d="M-288.5,600.445s87.16-61.18,136.871-31.018c.3.2-.434,9.742,0,10.054,5.586,16.757,12.288,13.964,23.129,20.964" transform="translate(928.5 -550)" fill="none" stroke="#707070" stroke-width="1"/>
    <path id="Caminho_5" data-name="Caminho 5" d="M-128.5,600.445c-13.887.261-32.878,2.5-41.815-10.91-2.234-7.82-2.793-21.225,21.225-19.549-27.064-32.4-139.41,30.459-139.41,30.459" transform="translate(1088.5 -550)" fill="none" stroke="#707070" stroke-width="1"/>
    <path id="Caminho_6" data-name="Caminho 6" d="M-288.5,600.445s122.146-65.09,143.625-22.64c-41.892-17.874-46.614,6.144-31.279,16.757,13.964,10.613,33.767,6.144,47.654,5.883" transform="translate(1248.5 -550)" fill="none" stroke="#707070" stroke-width="1"/>
    <path id="Caminho_7" data-name="Caminho 7" d="M-288.5,600.445s144.235-72.909,140.02-15.937c-17.315-30.72-48.848-1.117-33.513,9.5,13.964,10.613,39.606,6.7,53.493,6.441" transform="translate(1408.5 -550)" fill="none" stroke="#707070" stroke-width="1"/>
    <path id="Caminho_8" data-name="Caminho 8" d="M-288.5,600.445s135.044-79.053,136.973-2.532c-15.893-45.8-45.8-14.522-30.467-3.91,13.964,10.613,39.606,6.7,53.493,6.441" transform="translate(1568.5 -550)" fill="none" stroke="#707070" stroke-width="1"/>
    <path id="Caminho_11" data-name="Caminho 11" d="M-288.5,600.445s192.575-60.621,137.837,0c15.081-25.432-44.379-14.82-29.045-4.207,13.964,10.613,37.321,4.468,51.208,4.207" transform="translate(1728.5 -550)" fill="none" stroke="#707070" stroke-width="1"/>
    <path id="Caminho_12" data-name="Caminho 12" d="M-288.5,600.445s197.907-39.955,137.837,0c7.008-20.964-20.057-8.117-16.452-3.649,9.242,4.468,24.728,3.91,38.615,3.649" transform="translate(1888.5 -550)" fill="none" stroke="#707070" stroke-width="1"/>
    <path id="Caminho_13" data-name="Caminho 13" d="M-288.5,600.445s165.816-29.9,137.837,0c3.4-10.91-11.373-8.117-7.768-3.649,9.242,4.468,16.044,3.91,29.932,3.649" transform="translate(2048.5 -550)" fill="none" stroke="#707070" stroke-width="1"/>
    <path id="Caminho_14" data-name="Caminho 14" d="M-288.5,600.445s151.6-25.432,137.837,0c-.761-4.766-7.717-7-4.112-2.532,9.242,4.468,12.388,2.793,26.275,2.532" transform="translate(2208.5 -550)" fill="none" stroke="#707070" stroke-width="1"/>
    <path id="Caminho_15" data-name="Caminho 15" d="M-288.5,600.445s115.6-23.757,142.966-4.207c-1.117.559,3.146,4.468,17.034,4.207" transform="translate(2368.5 -550)" fill="none" stroke="#707070" stroke-width="1"/>
    <path id="Caminho_16" data-name="Caminho 16" d="M-288.5,600.445s105.234-15.9,160,0" transform="translate(2528.5 -550)" fill="none" stroke="#707070" stroke-width="1"/>
    <path id="Caminho_17" data-name="Caminho 17" d="M-288.5,600.445s97.775-.3,160,0" transform="translate(2688.5 -550)" fill="none" stroke="#707070" stroke-width="1"/>
  </g>
</svg>
